<svg aria-hidden="true" style="position: absolute; width: 0; height: 0; overflow: hidden;" version="1.1" xmlns="http://www.w3.org/2000/svg" xmlns:xlink="http://www.w3.org/1999/xlink">
<defs>
<symbol id="icon-arrow-left" viewBox="0 0 48 32">
<path d="M0.292 16.708l15 15c0.181 0.181 0.431 0.294 0.708 0.294 0.553 0 1.001-0.448 1.001-1.001 0-0.276-0.112-0.526-0.293-0.707v0l-13.294-13.294h43.586c0.552 0 1-0.448 1-1s-0.448-1-1-1v0h-43.586l13.294-13.292c0.181-0.181 0.293-0.431 0.293-0.707 0-0.553-0.448-1.001-1.001-1.001-0.277 0-0.527 0.112-0.708 0.294v0l-15 15c-0.181 0.181-0.293 0.431-0.293 0.707s0.112 0.526 0.293 0.707v0z"></path>
</symbol>
<symbol id="icon-arrow-right" viewBox="0 0 48 32">
<path d="M47.708 15.294l-15-15c-0.182-0.188-0.437-0.305-0.719-0.305-0.552 0-1 0.448-1 1 0 0.282 0.117 0.537 0.305 0.719l13.292 13.292h-43.586c-0.552 0-1 0.448-1 1s0.448 1 1 1v0h43.586l-13.292 13.294c-0.188 0.182-0.305 0.437-0.305 0.719 0 0.552 0.448 1 1 1 0.282 0 0.537-0.117 0.719-0.305l15-15c0.181-0.181 0.293-0.431 0.293-0.707s-0.112-0.526-0.293-0.707v0z"></path>
</symbol>
<symbol id="logout" viewBox="0 0 30 30">
<path d="M23.7122 8.71216L22.3866 10.0378L26.4112 14.0625H13.1251V15.9375H26.4112L22.3866 19.9622L23.7122 21.2878L30.0001 15L23.7122 8.71216Z" fill="black"/>
<path d="M20.6251 28.125H1.87508V1.87502H20.6251V3.75004H22.5001V0.93751C22.5001 0.419302 22.0808 0 21.5626 0H0.937571C0.419363 0 6.10352e-05 0.419302 6.10352e-05 0.93751V29.0625C6.10352e-05 29.5807 0.419363 30 0.937571 30H21.5626C22.0808 30 22.5001 29.5807 22.5001 29.0625V26.25H20.6251V28.125Z" fill="black"/>
</symbol>
</defs>
</svg>
