<svg aria-hidden="true" style="position: absolute; width: 0; height: 0; overflow: hidden;" version="1.1" xmlns="http://www.w3.org/2000/svg" xmlns:xlink="http://www.w3.org/1999/xlink">
<defs>
<symbol id="icon-arrow-left" viewBox="0 0 48 32">
<path d="M0.292 16.708l15 15c0.181 0.181 0.431 0.294 0.708 0.294 0.553 0 1.001-0.448 1.001-1.001 0-0.276-0.112-0.526-0.293-0.707v0l-13.294-13.294h43.586c0.552 0 1-0.448 1-1s-0.448-1-1-1v0h-43.586l13.294-13.292c0.181-0.181 0.293-0.431 0.293-0.707 0-0.553-0.448-1.001-1.001-1.001-0.277 0-0.527 0.112-0.708 0.294v0l-15 15c-0.181 0.181-0.293 0.431-0.293 0.707s0.112 0.526 0.293 0.707v0z"></path>
</symbol>
<symbol id="icon-arrow-right" viewBox="0 0 48 32">
<path d="M47.708 15.294l-15-15c-0.182-0.188-0.437-0.305-0.719-0.305-0.552 0-1 0.448-1 1 0 0.282 0.117 0.537 0.305 0.719l13.292 13.292h-43.586c-0.552 0-1 0.448-1 1s0.448 1 1 1v0h43.586l-13.292 13.294c-0.188 0.182-0.305 0.437-0.305 0.719 0 0.552 0.448 1 1 1 0.282 0 0.537-0.117 0.719-0.305l15-15c0.181-0.181 0.293-0.431 0.293-0.707s-0.112-0.526-0.293-0.707v0z"></path>
</symbol>
</defs>
</svg>
