<svg aria-hidden="true" style="position: absolute; width: 0; height: 0; overflow: hidden;" version="1.1" xmlns="http://www.w3.org/2000/svg" xmlns:xlink="http://www.w3.org/1999/xlink">
<defs>
<symbol id="icon-arrow-left" viewBox="0 0 48 32">
<path d="M0.292 16.708l15 15c0.181 0.181 0.431 0.294 0.708 0.294 0.553 0 1.001-0.448 1.001-1.001 0-0.276-0.112-0.526-0.293-0.707v0l-13.294-13.294h43.586c0.552 0 1-0.448 1-1s-0.448-1-1-1v0h-43.586l13.294-13.292c0.181-0.181 0.293-0.431 0.293-0.707 0-0.553-0.448-1.001-1.001-1.001-0.277 0-0.527 0.112-0.708 0.294v0l-15 15c-0.181 0.181-0.293 0.431-0.293 0.707s0.112 0.526 0.293 0.707v0z"></path>
</symbol>
<symbol id="icon-arrow-right" viewBox="0 0 48 32">
<path d="M47.708 15.294l-15-15c-0.182-0.188-0.437-0.305-0.719-0.305-0.552 0-1 0.448-1 1 0 0.282 0.117 0.537 0.305 0.719l13.292 13.292h-43.586c-0.552 0-1 0.448-1 1s0.448 1 1 1v0h43.586l-13.292 13.294c-0.188 0.182-0.305 0.437-0.305 0.719 0 0.552 0.448 1 1 1 0.282 0 0.537-0.117 0.719-0.305l15-15c0.181-0.181 0.293-0.431 0.293-0.707s-0.112-0.526-0.293-0.707v0z"></path>
</symbol>
<symbol id="logout" viewBox="0 0 30 30">
<path d="M23.7122 8.71216L22.3866 10.0378L26.4112 14.0625H13.1251V15.9375H26.4112L22.3866 19.9622L23.7122 21.2878L30.0001 15L23.7122 8.71216Z" fill="black"/>
<path d="M20.6251 28.125H1.87508V1.87502H20.6251V3.75004H22.5001V0.93751C22.5001 0.419302 22.0808 0 21.5626 0H0.937571C0.419363 0 6.10352e-05 0.419302 6.10352e-05 0.93751V29.0625C6.10352e-05 29.5807 0.419363 30 0.937571 30H21.5626C22.0808 30 22.5001 29.5807 22.5001 29.0625V26.25H20.6251V28.125Z" fill="black"/>
</symbol>
<symbol id="heart" viewBox="0 0 32 32">
<path d="M23.6 2c-3.363 0-6.258 2.736-7.599 5.594-1.342-2.858-4.237-5.594-7.601-5.594-4.637 0-8.4 3.764-8.4 8.401 0 9.433 9.516 11.906 16.001 21.232 6.13-9.268 15.999-12.1 15.999-21.232 0-4.637-3.763-8.401-8.4-8.401z"></path>
</symbol>
<symbol id="spinner" viewBox="0 0 32 32">
<path d="M12 4a4 4 0 1 1 8 0 4 4 0 0 1-8 0zm12.719 12a3.281 3.281 0 0 1 6.562 0 3.281 3.281 0 0 1-6.562 0zm-3.206 8.485a2.972 2.972 0 1 1 5.945.001 2.972 2.972 0 0 1-5.945-.001zM13.308 28a2.692 2.692 0 1 1 5.383 0 2.692 2.692 0 0 1-5.383 0zm-8.231-3.515a2.439 2.439 0 1 1 4.877.001 2.439 2.439 0 0 1-4.877-.001zM1.792 16a2.208 2.208 0 1 1 4.416 0 2.208 2.208 0 0 1-4.416 0zm3.723-8.485a2 2 0 1 1 4 0 2 2 0 1 1-4 0zm22.593 0a3.623 3.623 0 1 1-7.246 0 3.623 3.623 0 0 1 7.246 0z"/>
</symbol>
<symbol id="burger" viewBox="0 0 20 20">
<path d="M2.5 15H17.5V13.3333H2.5V15ZM2.5 10.8333H17.5V9.16667H2.5V10.8333ZM2.5 5V6.66667H17.5V5H2.5Z" fill="black"/>
</symbol>
<symbol id="close" viewBox="0 0 26 26">
<path d="M20.5832 6.94417L19.0557 5.41667L12.9998 11.4725L6.944 5.41667L5.4165 6.94417L11.4723 13L5.4165 19.0558L6.944 20.5833L12.9998 14.5275L19.0557 20.5833L20.5832 19.0558L14.5273 13L20.5832 6.94417Z" fill="black"/>
</symbol>
</defs>
</svg>
